<mxfile host="Electron" modified="2023-11-05T14:10:41.823Z" agent="Mozilla/5.0 (Windows NT 10.0; Win64; x64) AppleWebKit/537.36 (KHTML, like Gecko) draw.io/22.0.3 Chrome/114.0.5735.289 Electron/25.8.4 Safari/537.36" etag="F-B4EMSk-oV3PCdAgS3w" version="22.0.3" type="device">
  <diagram name="Sayfa -1" id="ClEnxMzZP13w-8fQljTk">
    <mxGraphModel dx="1036" dy="606" grid="1" gridSize="10" guides="1" tooltips="1" connect="1" arrows="1" fold="1" page="1" pageScale="1" pageWidth="827" pageHeight="1169" math="0" shadow="0">
      <root>
        <mxCell id="0" />
        <mxCell id="1" parent="0" />
        <mxCell id="eqse0RoJx37s4Tlqx7H6-2" style="edgeStyle=orthogonalEdgeStyle;rounded=0;orthogonalLoop=1;jettySize=auto;html=1;" edge="1" parent="1" source="eqse0RoJx37s4Tlqx7H6-1" target="eqse0RoJx37s4Tlqx7H6-3">
          <mxGeometry relative="1" as="geometry">
            <mxPoint x="390" y="160" as="targetPoint" />
          </mxGeometry>
        </mxCell>
        <mxCell id="eqse0RoJx37s4Tlqx7H6-1" value="start" style="ellipse;whiteSpace=wrap;html=1;" vertex="1" parent="1">
          <mxGeometry x="330" y="10" width="120" height="80" as="geometry" />
        </mxCell>
        <mxCell id="eqse0RoJx37s4Tlqx7H6-4" style="edgeStyle=orthogonalEdgeStyle;rounded=0;orthogonalLoop=1;jettySize=auto;html=1;" edge="1" parent="1" source="eqse0RoJx37s4Tlqx7H6-3" target="eqse0RoJx37s4Tlqx7H6-5">
          <mxGeometry relative="1" as="geometry">
            <mxPoint x="390" y="290" as="targetPoint" />
          </mxGeometry>
        </mxCell>
        <mxCell id="eqse0RoJx37s4Tlqx7H6-3" value="sayi=n&lt;br&gt;sonuc=s&lt;br&gt;sayac=S&lt;br&gt;s==0&lt;br&gt;S==1" style="rounded=0;whiteSpace=wrap;html=1;" vertex="1" parent="1">
          <mxGeometry x="330" y="140" width="120" height="70" as="geometry" />
        </mxCell>
        <mxCell id="eqse0RoJx37s4Tlqx7H6-6" style="edgeStyle=orthogonalEdgeStyle;rounded=0;orthogonalLoop=1;jettySize=auto;html=1;" edge="1" parent="1" source="eqse0RoJx37s4Tlqx7H6-5" target="eqse0RoJx37s4Tlqx7H6-7">
          <mxGeometry relative="1" as="geometry">
            <mxPoint x="390" y="400" as="targetPoint" />
          </mxGeometry>
        </mxCell>
        <mxCell id="eqse0RoJx37s4Tlqx7H6-5" value="n&#39;i giriniz" style="shape=parallelogram;perimeter=parallelogramPerimeter;whiteSpace=wrap;html=1;fixedSize=1;" vertex="1" parent="1">
          <mxGeometry x="330" y="260" width="120" height="60" as="geometry" />
        </mxCell>
        <mxCell id="eqse0RoJx37s4Tlqx7H6-8" style="edgeStyle=orthogonalEdgeStyle;rounded=0;orthogonalLoop=1;jettySize=auto;html=1;" edge="1" parent="1" source="eqse0RoJx37s4Tlqx7H6-7" target="eqse0RoJx37s4Tlqx7H6-9">
          <mxGeometry relative="1" as="geometry">
            <mxPoint x="600" y="400" as="targetPoint" />
          </mxGeometry>
        </mxCell>
        <mxCell id="eqse0RoJx37s4Tlqx7H6-15" style="edgeStyle=orthogonalEdgeStyle;rounded=0;orthogonalLoop=1;jettySize=auto;html=1;" edge="1" parent="1" source="eqse0RoJx37s4Tlqx7H6-7" target="eqse0RoJx37s4Tlqx7H6-16">
          <mxGeometry relative="1" as="geometry">
            <mxPoint x="390" y="550" as="targetPoint" />
          </mxGeometry>
        </mxCell>
        <mxCell id="eqse0RoJx37s4Tlqx7H6-7" value="S&amp;lt;n" style="rhombus;whiteSpace=wrap;html=1;" vertex="1" parent="1">
          <mxGeometry x="350" y="360" width="80" height="80" as="geometry" />
        </mxCell>
        <mxCell id="eqse0RoJx37s4Tlqx7H6-10" style="edgeStyle=orthogonalEdgeStyle;rounded=0;orthogonalLoop=1;jettySize=auto;html=1;" edge="1" parent="1" source="eqse0RoJx37s4Tlqx7H6-9" target="eqse0RoJx37s4Tlqx7H6-11">
          <mxGeometry relative="1" as="geometry">
            <mxPoint x="600" y="490" as="targetPoint" />
          </mxGeometry>
        </mxCell>
        <mxCell id="eqse0RoJx37s4Tlqx7H6-9" value="s=s+(1/S)" style="rounded=0;whiteSpace=wrap;html=1;" vertex="1" parent="1">
          <mxGeometry x="540" y="370" width="120" height="60" as="geometry" />
        </mxCell>
        <mxCell id="eqse0RoJx37s4Tlqx7H6-11" value="S=S+1" style="rounded=0;whiteSpace=wrap;html=1;" vertex="1" parent="1">
          <mxGeometry x="540" y="460" width="120" height="60" as="geometry" />
        </mxCell>
        <mxCell id="eqse0RoJx37s4Tlqx7H6-13" style="edgeStyle=orthogonalEdgeStyle;rounded=0;orthogonalLoop=1;jettySize=auto;html=1;entryX=0.915;entryY=0.628;entryDx=0;entryDy=0;entryPerimeter=0;" edge="1" parent="1" source="eqse0RoJx37s4Tlqx7H6-11" target="eqse0RoJx37s4Tlqx7H6-7">
          <mxGeometry relative="1" as="geometry" />
        </mxCell>
        <mxCell id="eqse0RoJx37s4Tlqx7H6-17" style="edgeStyle=orthogonalEdgeStyle;rounded=0;orthogonalLoop=1;jettySize=auto;html=1;" edge="1" parent="1" source="eqse0RoJx37s4Tlqx7H6-16">
          <mxGeometry relative="1" as="geometry">
            <mxPoint x="390" y="650" as="targetPoint" />
          </mxGeometry>
        </mxCell>
        <mxCell id="eqse0RoJx37s4Tlqx7H6-16" value="s" style="shape=document;whiteSpace=wrap;html=1;boundedLbl=1;" vertex="1" parent="1">
          <mxGeometry x="330" y="510" width="120" height="80" as="geometry" />
        </mxCell>
        <mxCell id="eqse0RoJx37s4Tlqx7H6-19" value="" style="ellipse;whiteSpace=wrap;html=1;" vertex="1" parent="1">
          <mxGeometry x="330" y="650" width="120" height="80" as="geometry" />
        </mxCell>
      </root>
    </mxGraphModel>
  </diagram>
</mxfile>
